
<svg width="387px" height="101px" viewBox="0 0 387 101" version="1.1" xmlns="http://www.w3.org/2000/svg" xmlns:xlink="http://www.w3.org/1999/xlink">
    <!-- Generator: Sketch 51.3 (57544) - http://www.bohemiancoding.com/sketch -->
    <desc>Created with Sketch.</desc>
    <defs></defs>
    <g id="Page-1" stroke="none" stroke-width="1" fill="none" fill-rule="evenodd">
        <g id="Artboard" transform="translate(-70.000000, -144.000000)" fill="#1E1E1E">
            <path d="M154.016,219.368 L154.016,245 L70.208,245 L70.208,144.2 L152.144,144.2 L152.144,169.832 L103.616,169.832 L103.616,181.64 L146.24,181.64 L146.24,206.12 L103.616,206.12 L103.616,219.368 L154.016,219.368 Z M167.12,144.2 L201.104,144.2 L201.104,218.648 L246.608,218.648 L246.608,245 L167.12,245 L167.12,144.2 Z M255.968,144.2 L289.952,144.2 L289.952,218.648 L335.456,218.648 L335.456,245 L255.968,245 L255.968,144.2 Z M414.944,227.432 L376.64,227.432 L369.872,245 L335.312,245 L379.376,144.2 L412.784,144.2 L456.848,245 L421.712,245 L414.944,227.432 Z M405.584,202.952 L395.792,177.608 L386,202.952 L405.584,202.952 Z" id="ELLA"></path>
        </g>
    </g>
</svg>
